<?xml version="1.0" encoding="UTF-8"?>
<svg id="_레이어_1" data-name="레이어 1" xmlns="http://www.w3.org/2000/svg" viewBox="0 0 980.91 424.87">
  <defs>
    <style>
      .cls-1 {
        fill: #292929;
      }

      .cls-2 {
        fill: #fff;
      }
    </style>
  </defs>
  <path class="cls-1" d="M812.05,183.51h123.39v53.9h-432.11v-53.9h123.39"/>
  <rect class="cls-1" x="390.85" y="32.23" width="61.46" height="361.67"/>
  <path class="cls-2" d="M299.13,98.89c-11.66-19.54-27.42-35.06-47.28-46.57-19.86-11.5-41.6-17.26-65.24-17.26s-45.39,5.75-65.24,17.26c-19.86,11.51-35.62,27.03-47.28,46.57-11.66,19.55-17.49,40.82-17.49,63.82s5.75,44.29,17.26,63.82c11.5,19.55,27.26,35.07,47.28,46.57,20.01,11.51,41.84,17.26,65.48,17.26s45.39-5.75,65.24-17.26c19.86-11.5,35.61-27.1,47.28-46.8,11.66-19.69,17.49-40.89,17.49-63.59s-5.84-44.28-17.49-63.82ZM187.55,238.36c-38.24,0-73.28-32.26-73.28-75.64s35.04-75.64,73.28-75.64,73.28,31.9,73.28,75.64-35.04,75.64-73.28,75.64Z"/>
  <g>
    <path class="cls-2" d="M626.76,183.51c-14.18-19.22-21.27-40.34-21.27-63.35,0-19.54,5.04-37.66,15.13-54.37,10.08-16.7,23.87-30.02,41.37-39.95,17.49-9.93,36.64-14.89,57.44-14.89s39.95,4.96,57.44,14.89c17.49,9.93,31.28,23.25,41.37,39.95,10.08,16.71,15.13,34.83,15.13,54.37,0,23.01-7.09,44.13-21.27,63.35M745.19,169.8c8.04-5.04,14.49-11.89,19.38-20.56,4.88-8.67,7.33-18.36,7.33-29.08s-2.45-20.4-7.33-29.08c-4.89-8.67-11.35-15.52-19.38-20.57-8.04-5.04-16.63-7.56-25.77-7.56s-17.73,2.53-25.77,7.56c-8.04,5.05-14.5,11.9-19.38,20.57-4.89,8.67-7.33,18.36-7.33,29.08s2.44,20.41,7.33,29.08c4.88,8.67,11.35,15.53,19.38,20.56,8.04,5.05,16.62,7.56,25.77,7.56s17.73-2.52,25.77-7.56Z"/>
    <path class="cls-2" d="M812.05,56.74c14.18,19.22,21.27,40.34,21.27,63.35,0,19.54-5.04,37.66-15.13,54.37-10.08,16.7-23.87,30.02-41.37,39.95-17.49,9.93-36.64,14.89-57.44,14.89s-39.95-4.96-57.44-14.89c-17.49-9.93-31.28-23.25-41.37-39.95-10.08-16.71-15.13-34.83-15.13-54.37,0-23.01,7.09-44.13,21.27-63.35M693.62,70.45c-8.04,5.04-14.49,11.89-19.38,20.56-4.88,8.67-7.33,18.36-7.33,29.08s2.45,20.4,7.33,29.08c4.89,8.67,11.35,15.52,19.38,20.57,8.04,5.04,16.63,7.56,25.77,7.56s17.73-2.53,25.77-7.56c8.04-5.05,14.5-11.9,19.38-20.57,4.89-8.67,7.33-18.36,7.33-29.08s-2.44-20.41-7.33-29.08c-4.88-8.67-11.35-15.53-19.38-20.56-8.04-5.05-16.62-7.56-25.77-7.56s-17.73,2.52-25.77,7.56Z"/>
  </g>
  <path class="cls-2" d="M915.35,256.32h-392.4v95.03c0,12.92,3.46,22.85,10.4,29.78,6.93,6.93,16.86,10.4,29.78,10.4h312.5c12.92,0,22.85-3.47,29.79-10.4,6.93-6.94,10.4-16.86,10.4-29.78l-.47-95.03ZM853.89,337.64h-269.48v-27.42h269.48v27.42Z"/>
</svg>